# xmcd CD database file
#
# Track frame offsets:
#	150
#	28750
#	44116
#	58987
#	84630
#	90045
#	115875
#	130809
#	152360
#	171086
#	193345
#	221642
#	254887
#
# Disc length: 3704 seconds
#
# Revision: 0
# Processed by: cddbd v1.5.2PL0 Copyright (c) Steve Scherf et al.
# Submitted via: CDex 1.70beta2
#
DISCID=bc0e760d
DTITLE=Philip Glass - Liquid Times [CD 1]
DYEAR=2011
DGENRE=Jazz
TTITLE0=Opening
TTITLE1=Dance V (from "In the upper room") 
TTITLE2=A gentleman's honor (instrumental)
TTITLE3=Metamorphosis one
TTITLE4=Dance I (from "In the upper room") 
TTITLE5=Dance II (from "In the upper room") 
TTITLE6=A gentleman's honor
TTITLE7=Liquid days (Part I)
TTITLE8=Evening song (from "Satyagraha")
TTITLE9=Tolstoy farm (from "Satyagraha")
TTITLE10=Hymn to the sun (from "Akhnaten")
TTITLE11="Façades" (from "Glassworks")
TTITLE12=Metamorphosis five
EXTD=YEAR: 2011
EXTT0=
EXTT1=
EXTT2=
EXTT3=
EXTT4=
EXTT5=
EXTT6=
EXTT7=
EXTT8=
EXTT9=
EXTT10=
EXTT11=
EXTT12=
PLAYORDER=
